# xmcd
#
# Track frame offsets:
# 150
# 8880
# 24782
# 39242
# 58199
# 74309
# 94621
# 109540
# 124325
# 142620
# 160355
# 194277
#
# Disc length: 3077 seconds
#
#
# Revision: 2
# Processed by: cddbd v1.5.1PL2 Copyright (c) Steve Scherf et al.
# Submitted via: ExactAudioCopy v0.95b4
#
DISCID=920c030c
DTITLE=Mancha De Rolando - Viaje
DYEAR=2004
DGENRE=Rock
TTITLE0=Viaje
TTITLE1=Calavera
TTITLE2=Buscar
TTITLE3=Arde La Ciudad
TTITLE4=La Marca Del Sol
TTITLE5=Donde Vamos
TTITLE6=Guerrero
TTITLE7=Viviendo Allá II
TTITLE8=Melodía Simple
TTITLE9=Secuelas
TTITLE10=Renacer
TTITLE11=Data
EXTD=Gracias a los Amigos y Amigas que disfrutan junto a Nosotros de l
EXTD=os recitales y los discos, y hacen que todo el tiempo la Planta s
EXTD=iga creciendo.
EXTT0=
EXTT1=
EXTT2=
EXTT3=
EXTT4=
EXTT5=
EXTT6=
EXTT7=
EXTT8=
EXTT9=
EXTT10=
EXTT11=
PLAYORDER=
